<svg width="45" height="52" viewBox="0 0 45 52" fill="none" xmlns="http://www.w3.org/2000/svg">
<path d="M1.5 3C2.32843 3 3 2.32843 3 1.5C3 0.671573 2.32843 0 1.5 0C0.671573 0 0 0.671573 0 1.5C0 2.32843 0.671573 3 1.5 3Z" fill="#FF6176"/>
<path d="M8.5 3C9.32843 3 10 2.32843 10 1.5C10 0.671573 9.32843 0 8.5 0C7.67157 0 7 0.671573 7 1.5C7 2.32843 7.67157 3 8.5 3Z" fill="#FF6176"/>
<path d="M15.5 3C16.3284 3 17 2.32843 17 1.5C17 0.671573 16.3284 0 15.5 0C14.6716 0 14 0.671573 14 1.5C14 2.32843 14.6716 3 15.5 3Z" fill="#FF6176"/>
<path d="M22.5 3C23.3284 3 24 2.32843 24 1.5C24 0.671573 23.3284 0 22.5 0C21.6716 0 21 0.671573 21 1.5C21 2.32843 21.6716 3 22.5 3Z" fill="#FF6176"/>
<path d="M29.5 3C30.3284 3 31 2.32843 31 1.5C31 0.671573 30.3284 0 29.5 0C28.6716 0 28 0.671573 28 1.5C28 2.32843 28.6716 3 29.5 3Z" fill="#FF6176"/>
<path d="M36.5 3C37.3284 3 38 2.32843 38 1.5C38 0.671573 37.3284 0 36.5 0C35.6716 0 35 0.671573 35 1.5C35 2.32843 35.6716 3 36.5 3Z" fill="#FF6176"/>
<path d="M43.5 3C44.3284 3 45 2.32843 45 1.5C45 0.671573 44.3284 0 43.5 0C42.6716 0 42 0.671573 42 1.5C42 2.32843 42.6716 3 43.5 3Z" fill="#FF6176"/>
<path d="M1.5 10C2.32843 10 3 9.32843 3 8.5C3 7.67157 2.32843 7 1.5 7C0.671573 7 0 7.67157 0 8.5C0 9.32843 0.671573 10 1.5 10Z" fill="#FF6176"/>
<path d="M8.5 10C9.32843 10 10 9.32843 10 8.5C10 7.67157 9.32843 7 8.5 7C7.67157 7 7 7.67157 7 8.5C7 9.32843 7.67157 10 8.5 10Z" fill="#FF6176"/>
<path d="M15.5 10C16.3284 10 17 9.32843 17 8.5C17 7.67157 16.3284 7 15.5 7C14.6716 7 14 7.67157 14 8.5C14 9.32843 14.6716 10 15.5 10Z" fill="#FF6176"/>
<path d="M22.5 10C23.3284 10 24 9.32843 24 8.5C24 7.67157 23.3284 7 22.5 7C21.6716 7 21 7.67157 21 8.5C21 9.32843 21.6716 10 22.5 10Z" fill="#FF6176"/>
<path d="M29.5 10C30.3284 10 31 9.32843 31 8.5C31 7.67157 30.3284 7 29.5 7C28.6716 7 28 7.67157 28 8.5C28 9.32843 28.6716 10 29.5 10Z" fill="#FF6176"/>
<path d="M36.5 10C37.3284 10 38 9.32843 38 8.5C38 7.67157 37.3284 7 36.5 7C35.6716 7 35 7.67157 35 8.5C35 9.32843 35.6716 10 36.5 10Z" fill="#FF6176"/>
<path d="M43.5 10C44.3284 10 45 9.32843 45 8.5C45 7.67157 44.3284 7 43.5 7C42.6716 7 42 7.67157 42 8.5C42 9.32843 42.6716 10 43.5 10Z" fill="#FF6176"/>
<path d="M1.5 17C2.32843 17 3 16.3284 3 15.5C3 14.6716 2.32843 14 1.5 14C0.671573 14 0 14.6716 0 15.5C0 16.3284 0.671573 17 1.5 17Z" fill="#FF6176"/>
<path d="M8.5 17C9.32843 17 10 16.3284 10 15.5C10 14.6716 9.32843 14 8.5 14C7.67157 14 7 14.6716 7 15.5C7 16.3284 7.67157 17 8.5 17Z" fill="#FF6176"/>
<path d="M15.5 17C16.3284 17 17 16.3284 17 15.5C17 14.6716 16.3284 14 15.5 14C14.6716 14 14 14.6716 14 15.5C14 16.3284 14.6716 17 15.5 17Z" fill="#FF6176"/>
<path d="M22.5 17C23.3284 17 24 16.3284 24 15.5C24 14.6716 23.3284 14 22.5 14C21.6716 14 21 14.6716 21 15.5C21 16.3284 21.6716 17 22.5 17Z" fill="#FF6176"/>
<path d="M29.5 17C30.3284 17 31 16.3284 31 15.5C31 14.6716 30.3284 14 29.5 14C28.6716 14 28 14.6716 28 15.5C28 16.3284 28.6716 17 29.5 17Z" fill="#FF6176"/>
<path d="M36.5 17C37.3284 17 38 16.3284 38 15.5C38 14.6716 37.3284 14 36.5 14C35.6716 14 35 14.6716 35 15.5C35 16.3284 35.6716 17 36.5 17Z" fill="#FF6176"/>
<path d="M43.5 17C44.3284 17 45 16.3284 45 15.5C45 14.6716 44.3284 14 43.5 14C42.6716 14 42 14.6716 42 15.5C42 16.3284 42.6716 17 43.5 17Z" fill="#FF6176"/>
<path d="M1.5 24C2.32843 24 3 23.3284 3 22.5C3 21.6716 2.32843 21 1.5 21C0.671573 21 0 21.6716 0 22.5C0 23.3284 0.671573 24 1.5 24Z" fill="#FF6176"/>
<path d="M8.5 24C9.32843 24 10 23.3284 10 22.5C10 21.6716 9.32843 21 8.5 21C7.67157 21 7 21.6716 7 22.5C7 23.3284 7.67157 24 8.5 24Z" fill="#FF6176"/>
<path d="M15.5 24C16.3284 24 17 23.3284 17 22.5C17 21.6716 16.3284 21 15.5 21C14.6716 21 14 21.6716 14 22.5C14 23.3284 14.6716 24 15.5 24Z" fill="#FF6176"/>
<path d="M22.5 24C23.3284 24 24 23.3284 24 22.5C24 21.6716 23.3284 21 22.5 21C21.6716 21 21 21.6716 21 22.5C21 23.3284 21.6716 24 22.5 24Z" fill="#FF6176"/>
<path d="M29.5 24C30.3284 24 31 23.3284 31 22.5C31 21.6716 30.3284 21 29.5 21C28.6716 21 28 21.6716 28 22.5C28 23.3284 28.6716 24 29.5 24Z" fill="#FF6176"/>
<path d="M36.5 24C37.3284 24 38 23.3284 38 22.5C38 21.6716 37.3284 21 36.5 21C35.6716 21 35 21.6716 35 22.5C35 23.3284 35.6716 24 36.5 24Z" fill="#FF6176"/>
<path d="M43.5 24C44.3284 24 45 23.3284 45 22.5C45 21.6716 44.3284 21 43.5 21C42.6716 21 42 21.6716 42 22.5C42 23.3284 42.6716 24 43.5 24Z" fill="#FF6176"/>
<path d="M1.5 31C2.32843 31 3 30.3284 3 29.5C3 28.6716 2.32843 28 1.5 28C0.671573 28 0 28.6716 0 29.5C0 30.3284 0.671573 31 1.5 31Z" fill="#FF6176"/>
<path d="M8.5 31C9.32843 31 10 30.3284 10 29.5C10 28.6716 9.32843 28 8.5 28C7.67157 28 7 28.6716 7 29.5C7 30.3284 7.67157 31 8.5 31Z" fill="#FF6176"/>
<path d="M15.5 31C16.3284 31 17 30.3284 17 29.5C17 28.6716 16.3284 28 15.5 28C14.6716 28 14 28.6716 14 29.5C14 30.3284 14.6716 31 15.5 31Z" fill="#FF6176"/>
<path d="M22.5 31C23.3284 31 24 30.3284 24 29.5C24 28.6716 23.3284 28 22.5 28C21.6716 28 21 28.6716 21 29.5C21 30.3284 21.6716 31 22.5 31Z" fill="#FF6176"/>
<path d="M29.5 31C30.3284 31 31 30.3284 31 29.5C31 28.6716 30.3284 28 29.5 28C28.6716 28 28 28.6716 28 29.5C28 30.3284 28.6716 31 29.5 31Z" fill="#FF6176"/>
<path d="M36.5 31C37.3284 31 38 30.3284 38 29.5C38 28.6716 37.3284 28 36.5 28C35.6716 28 35 28.6716 35 29.5C35 30.3284 35.6716 31 36.5 31Z" fill="#FF6176"/>
<path d="M43.5 31C44.3284 31 45 30.3284 45 29.5C45 28.6716 44.3284 28 43.5 28C42.6716 28 42 28.6716 42 29.5C42 30.3284 42.6716 31 43.5 31Z" fill="#FF6176"/>
<path d="M1.5 38C2.32843 38 3 37.3284 3 36.5C3 35.6716 2.32843 35 1.5 35C0.671573 35 0 35.6716 0 36.5C0 37.3284 0.671573 38 1.5 38Z" fill="#FF6176"/>
<path d="M8.5 38C9.32843 38 10 37.3284 10 36.5C10 35.6716 9.32843 35 8.5 35C7.67157 35 7 35.6716 7 36.5C7 37.3284 7.67157 38 8.5 38Z" fill="#FF6176"/>
<path d="M15.5 38C16.3284 38 17 37.3284 17 36.5C17 35.6716 16.3284 35 15.5 35C14.6716 35 14 35.6716 14 36.5C14 37.3284 14.6716 38 15.5 38Z" fill="#FF6176"/>
<path d="M22.5 38C23.3284 38 24 37.3284 24 36.5C24 35.6716 23.3284 35 22.5 35C21.6716 35 21 35.6716 21 36.5C21 37.3284 21.6716 38 22.5 38Z" fill="#FF6176"/>
<path d="M29.5 38C30.3284 38 31 37.3284 31 36.5C31 35.6716 30.3284 35 29.5 35C28.6716 35 28 35.6716 28 36.5C28 37.3284 28.6716 38 29.5 38Z" fill="#FF6176"/>
<path d="M36.5 38C37.3284 38 38 37.3284 38 36.5C38 35.6716 37.3284 35 36.5 35C35.6716 35 35 35.6716 35 36.5C35 37.3284 35.6716 38 36.5 38Z" fill="#FF6176"/>
<path d="M43.5 38C44.3284 38 45 37.3284 45 36.5C45 35.6716 44.3284 35 43.5 35C42.6716 35 42 35.6716 42 36.5C42 37.3284 42.6716 38 43.5 38Z" fill="#FF6176"/>
<path d="M1.5 45C2.32843 45 3 44.3284 3 43.5C3 42.6716 2.32843 42 1.5 42C0.671573 42 0 42.6716 0 43.5C0 44.3284 0.671573 45 1.5 45Z" fill="#FF6176"/>
<path d="M8.5 45C9.32843 45 10 44.3284 10 43.5C10 42.6716 9.32843 42 8.5 42C7.67157 42 7 42.6716 7 43.5C7 44.3284 7.67157 45 8.5 45Z" fill="#FF6176"/>
<path d="M15.5 45C16.3284 45 17 44.3284 17 43.5C17 42.6716 16.3284 42 15.5 42C14.6716 42 14 42.6716 14 43.5C14 44.3284 14.6716 45 15.5 45Z" fill="#FF6176"/>
<path d="M22.5 45C23.3284 45 24 44.3284 24 43.5C24 42.6716 23.3284 42 22.5 42C21.6716 42 21 42.6716 21 43.5C21 44.3284 21.6716 45 22.5 45Z" fill="#FF6176"/>
<path d="M29.5 45C30.3284 45 31 44.3284 31 43.5C31 42.6716 30.3284 42 29.5 42C28.6716 42 28 42.6716 28 43.5C28 44.3284 28.6716 45 29.5 45Z" fill="#FF6176"/>
<path d="M36.5 45C37.3284 45 38 44.3284 38 43.5C38 42.6716 37.3284 42 36.5 42C35.6716 42 35 42.6716 35 43.5C35 44.3284 35.6716 45 36.5 45Z" fill="#FF6176"/>
<path d="M43.5 45C44.3284 45 45 44.3284 45 43.5C45 42.6716 44.3284 42 43.5 42C42.6716 42 42 42.6716 42 43.5C42 44.3284 42.6716 45 43.5 45Z" fill="#FF6176"/>
<path d="M1.5 52C2.32843 52 3 51.3284 3 50.5C3 49.6716 2.32843 49 1.5 49C0.671573 49 0 49.6716 0 50.5C0 51.3284 0.671573 52 1.5 52Z" fill="#FF6176"/>
<path d="M8.5 52C9.32843 52 10 51.3284 10 50.5C10 49.6716 9.32843 49 8.5 49C7.67157 49 7 49.6716 7 50.5C7 51.3284 7.67157 52 8.5 52Z" fill="#FF6176"/>
<path d="M15.5 52C16.3284 52 17 51.3284 17 50.5C17 49.6716 16.3284 49 15.5 49C14.6716 49 14 49.6716 14 50.5C14 51.3284 14.6716 52 15.5 52Z" fill="#FF6176"/>
<path d="M22.5 52C23.3284 52 24 51.3284 24 50.5C24 49.6716 23.3284 49 22.5 49C21.6716 49 21 49.6716 21 50.5C21 51.3284 21.6716 52 22.5 52Z" fill="#FF6176"/>
<path d="M29.5 52C30.3284 52 31 51.3284 31 50.5C31 49.6716 30.3284 49 29.5 49C28.6716 49 28 49.6716 28 50.5C28 51.3284 28.6716 52 29.5 52Z" fill="#FF6176"/>
<path d="M36.5 52C37.3284 52 38 51.3284 38 50.5C38 49.6716 37.3284 49 36.5 49C35.6716 49 35 49.6716 35 50.5C35 51.3284 35.6716 52 36.5 52Z" fill="#FF6176"/>
<path d="M43.5 52C44.3284 52 45 51.3284 45 50.5C45 49.6716 44.3284 49 43.5 49C42.6716 49 42 49.6716 42 50.5C42 51.3284 42.6716 52 43.5 52Z" fill="#FF6176"/>
</svg>
