<?xml version="1.0" encoding="utf-8"?>
<!-- Generator: Adobe Illustrator 23.0.2, SVG Export Plug-In . SVG Version: 6.00 Build 0)  -->
<svg version="1.1" id="Layer_1" xmlns="http://www.w3.org/2000/svg" xmlns:xlink="http://www.w3.org/1999/xlink" x="0px" y="0px"
	 viewBox="0 0 19 19" style="enable-background:new 0 0 19 19;" xml:space="preserve">
<style type="text/css">
	.st0{fill-rule:evenodd;clip-rule:evenodd;fill:#FFFFFF;}
</style>
<path class="st0" d="M2.8,8.5c2.1,0.2,4-0.2,5.6-1.2C7.7,6.1,6.7,5,5.6,4C4.9,4.5,4.3,5.2,3.8,6C3.3,6.7,3,7.6,2.8,8.5z M5.3,2.3
	C4,3.1,3,4.1,2.3,5.4C1.6,6.6,1.2,8,1.2,9.5c0,4.6,3.7,8.3,8.3,8.3s8.3-3.7,8.3-8.3s-3.7-8.3-8.3-8.3C8,1.2,6.6,1.6,5.3,2.3L5.3,2.3
	z M7.1,3.2c1,1,1.9,2,2.7,3.2c1-0.9,1.8-1.9,2.2-3.1C11.2,3,10.3,2.8,9.5,2.8C8.7,2.8,7.9,2.9,7.1,3.2L7.1,3.2z M13.4,4
	c-0.6,1.5-1.6,2.7-2.8,3.7c0.3,0.5,0.5,1,0.8,1.5c1.5-0.6,3.1-0.8,4.8-0.7c-0.2-0.9-0.5-1.7-1-2.5C14.8,5.2,14.1,4.6,13.4,4L13.4,4z
	 M16.2,10.1c-1.4-0.1-2.9,0.1-4.2,0.6c0.5,1.4,0.9,3,1.1,4.5c0.9-0.6,1.6-1.3,2.1-2.2C15.8,12.1,16.1,11.1,16.2,10.1L16.2,10.1z
	 M11.6,15.9c-0.1-1.5-0.4-3.1-1-4.5c-1.7,1-3.1,2.4-4.1,4.1c0.9,0.5,2,0.7,3,0.7C10.2,16.2,10.9,16.1,11.6,15.9L11.6,15.9z
	 M5.1,14.6C6.3,12.7,8,11,10,9.9C9.8,9.5,9.6,9.1,9.3,8.7c-1.9,1.1-4.2,1.6-6.5,1.4C2.9,11.8,3.8,13.5,5.1,14.6z"/>
</svg>
