<?xml version="1.0" encoding="utf-8"?>
<!-- Generator: Adobe Illustrator 23.0.2, SVG Export Plug-In . SVG Version: 6.00 Build 0)  -->
<svg version="1.1" id="Layer_1" xmlns="http://www.w3.org/2000/svg" xmlns:xlink="http://www.w3.org/1999/xlink" x="0px" y="0px"
	 viewBox="0 0 19 19" style="enable-background:new 0 0 19 19;" xml:space="preserve">
<style type="text/css">
	.st0{fill-rule:evenodd;clip-rule:evenodd;fill:#FFFFFF;}
</style>
<path class="st0" d="M0,3.8c0-1,0.4-2,1.1-2.7S2.8,0,3.8,0h11.4c1,0,2,0.4,2.7,1.1C18.6,1.8,19,2.8,19,3.8v11.4c0,1-0.4,2-1.1,2.7
	c-0.7,0.7-1.7,1.1-2.7,1.1H3.8c-1,0-2-0.4-2.7-1.1C0.4,17.2,0,16.2,0,15.2V3.8z M3.8,1.9c-0.5,0-1,0.2-1.3,0.6S1.9,3.3,1.9,3.8v11.4
	c0,0.5,0.2,1,0.6,1.3c0.4,0.4,0.8,0.6,1.3,0.6h5.7v-6.6H8.6c-0.3,0-0.5-0.1-0.7-0.3C7.7,10,7.6,9.8,7.6,9.5S7.7,9,7.9,8.8
	s0.4-0.3,0.7-0.3h0.9V7.1c0-0.9,0.4-1.7,1-2.4c0.6-0.6,1.5-1,2.4-1h0.6c0.3,0,0.5,0.1,0.7,0.3c0.2,0.2,0.3,0.4,0.3,0.7
	s-0.1,0.5-0.3,0.7s-0.4,0.3-0.7,0.3h-0.6c-0.2,0-0.4,0-0.5,0.1c-0.2,0.1-0.3,0.2-0.5,0.3c-0.1,0.1-0.2,0.3-0.3,0.5S11.5,7,11.5,7.1
	v1.4h2c0.3,0,0.5,0.1,0.7,0.3s0.3,0.4,0.3,0.7s-0.1,0.5-0.3,0.7s-0.4,0.3-0.7,0.3h-2v6.6h3.8c0.5,0,1-0.2,1.3-0.6
	c0.4-0.4,0.6-0.8,0.6-1.3V3.8c0-0.5-0.2-1-0.6-1.3c-0.4-0.4-0.8-0.6-1.3-0.6H3.8z"/>
</svg>
