<?xml version="1.0" encoding="utf-8"?>
<!-- Generator: Adobe Illustrator 23.0.2, SVG Export Plug-In . SVG Version: 6.00 Build 0)  -->
<svg version="1.1" id="Layer_1" xmlns="http://www.w3.org/2000/svg" xmlns:xlink="http://www.w3.org/1999/xlink" x="0px" y="0px"
	 viewBox="0 0 19 19" style="enable-background:new 0 0 19 19;" xml:space="preserve">
<style type="text/css">
	.st0{fill-rule:evenodd;clip-rule:evenodd;fill:#FFFFFF;}
</style>
<path class="st0" d="M0,3.8c0-1,0.4-2,1.1-2.7S2.8,0,3.8,0h11.4c1,0,2,0.4,2.7,1.1C18.6,1.8,19,2.8,19,3.8v11.4c0,1-0.4,2-1.1,2.7
	c-0.7,0.7-1.7,1.1-2.7,1.1H3.8c-1,0-2-0.4-2.7-1.1C0.4,17.2,0,16.2,0,15.2V3.8z M3.8,1.9c-0.5,0-1,0.2-1.3,0.6S1.9,3.3,1.9,3.8v11.4
	c0,0.5,0.2,1,0.6,1.3c0.4,0.4,0.8,0.6,1.3,0.6h11.4c0.5,0,1-0.2,1.3-0.6c0.4-0.4,0.6-0.8,0.6-1.3V3.8c0-0.5-0.2-1-0.6-1.3
	c-0.4-0.4-0.8-0.6-1.3-0.6H3.8z M9.5,6.6C8.7,6.6,8,7,7.5,7.5s-0.8,1.2-0.8,2s0.3,1.5,0.8,2s1.3,0.8,2,0.8c0.8,0,1.5-0.3,2-0.8
	s0.8-1.3,0.8-2c0-0.8-0.3-1.5-0.8-2S10.3,6.6,9.5,6.6z M4.8,9.5c0-1.3,0.5-2.5,1.4-3.4s2.1-1.4,3.4-1.4s2.5,0.5,3.4,1.4
	s1.4,2.1,1.4,3.4S13.9,12,13,12.9s-2.1,1.4-3.4,1.4s-2.5-0.5-3.4-1.4S4.8,10.8,4.8,9.5z M14.7,5.7c0.4,0,0.7-0.2,1-0.4
	c0.3-0.3,0.4-0.6,0.4-1s-0.2-0.7-0.4-1c-0.3-0.3-0.6-0.4-1-0.4s-0.7,0.2-1,0.4c-0.3,0.3-0.4,0.6-0.4,1s0.2,0.7,0.4,1
	C14,5.5,14.3,5.7,14.7,5.7z"/>
</svg>
