<svg width="722" height="108" viewBox="0 0 722 108" fill="none" xmlns="http://www.w3.org/2000/svg">
<path d="M64.688 35.448C64.688 35.64 64.4 35.784 63.824 35.88C63.344 35.976 63.056 35.88 62.96 35.592C61.424 30.024 58.832 25.896 55.184 23.208C51.536 20.52 46.736 19.176 40.784 19.176H36.464C33.584 19.176 31.472 19.8 30.128 21.048C28.784 22.296 28.112 24.216 28.112 26.808V57.912H38.48C44.048 57.912 48.272 56.952 51.152 55.032C54.128 53.016 55.616 50.28 55.616 46.824C55.616 46.632 55.904 46.536 56.48 46.536C57.056 46.536 57.344 46.632 57.344 46.824L57.2 59.928C57.2 63 57.248 65.304 57.344 66.84L57.488 74.472C57.488 74.76 57.2 74.904 56.624 74.904C56.048 74.904 55.76 74.76 55.76 74.472C55.76 70.632 54.224 67.608 51.152 65.4C48.176 63.096 43.904 61.944 38.336 61.944H28.112V92.76C28.112 95.736 28.496 97.944 29.264 99.384C30.032 100.824 31.472 101.832 33.584 102.408C35.696 102.984 39.008 103.272 43.52 103.272C43.712 103.272 43.808 103.56 43.808 104.136C43.808 104.712 43.712 105 43.52 105C39.584 105 36.512 104.952 34.304 104.856L19.616 104.712L8.816 104.856C6.896 104.952 4.256 105 0.896 105C0.608 105 0.464 104.712 0.464 104.136C0.464 103.56 0.608 103.272 0.896 103.272C4.256 103.272 6.704 103.032 8.24 102.552C9.776 102.072 10.784 101.16 11.264 99.816C11.84 98.376 12.128 96.216 12.128 93.336V26.664C12.128 23.784 11.888 21.672 11.408 20.328C10.928 18.984 9.968 18.072 8.528 17.592C7.088 17.016 4.88 16.728 1.904 16.728C1.616 16.728 1.472 16.44 1.472 15.864C1.472 15.288 1.616 15 1.904 15H62.96C63.92 15 64.4 15.432 64.4 16.296L64.688 35.448ZM129.039 97.224C129.423 97.224 129.663 97.464 129.759 97.944C129.951 98.328 129.855 98.616 129.471 98.808L114.639 105.864C114.255 106.056 113.775 106.152 113.199 106.152C111.759 106.152 110.319 105.432 108.879 103.992C107.535 102.552 106.575 100.584 105.999 98.088L99.3751 101.688C96.8791 102.936 94.2871 103.992 91.5991 104.856C88.9111 105.624 86.5111 106.008 84.3991 106.008C81.3271 106.008 78.8791 105.24 77.0551 103.704C75.3271 102.072 74.4631 99.768 74.4631 96.792C74.4631 94.584 74.9911 92.808 76.0471 91.464C77.1991 90.12 78.7831 89.016 80.7991 88.152C82.9111 87.192 86.2231 85.944 90.7351 84.408L105.423 79.656V68.28C105.423 62.52 104.847 58.296 103.695 55.608C102.543 52.824 100.671 51.432 98.0791 51.432C95.7751 51.432 93.9511 52.296 92.6071 54.024C91.2631 55.752 90.4471 58.584 90.1591 62.52C89.5831 67.896 86.7511 70.584 81.6631 70.584C77.1511 70.584 74.8951 68.616 74.8951 64.68C74.8951 62.088 76.5271 59.496 79.7911 56.904C83.0551 54.312 86.9911 52.2 91.5991 50.568C96.2071 48.936 100.239 48.12 103.695 48.12C108.207 48.12 111.855 49.464 114.639 52.152C117.519 54.84 118.959 58.776 118.959 63.96V89.448C118.959 92.232 119.439 94.392 120.399 95.928C121.455 97.464 122.895 98.232 124.719 98.232C126.063 98.232 127.455 97.896 128.895 97.224H129.039ZM105.567 95.784C105.471 95.112 105.423 94.104 105.423 92.76V82.104L97.5031 84.984C94.9111 85.944 93.0391 87 91.8871 88.152C90.8311 89.304 90.3031 90.696 90.3031 92.328C90.3031 94.344 90.8791 95.928 92.0311 97.08C93.1831 98.232 94.6231 98.808 96.3511 98.808C98.4631 98.808 100.911 98.136 103.695 96.792L105.567 95.784ZM146.305 56.328C146.305 59.112 147.265 61.512 149.185 63.528C151.201 65.544 154.081 67.656 157.825 69.864C161.473 71.976 164.161 73.656 165.889 74.904C167.713 76.056 169.345 77.736 170.785 79.944C172.225 82.056 172.945 84.648 172.945 87.72C172.945 90.984 172.129 94.056 170.497 96.936C168.865 99.816 166.417 102.168 163.153 103.992C159.889 105.72 156.001 106.584 151.489 106.584C146.209 106.584 141.217 105.288 136.513 102.696C135.937 102.12 135.649 101.544 135.649 100.968L135.361 86.712C135.361 86.424 135.601 86.28 136.081 86.28C136.657 86.184 136.993 86.232 137.089 86.424C138.625 91.224 141.169 95.304 144.721 98.664C148.273 102.024 151.873 103.704 155.521 103.704C157.537 103.704 159.121 103.08 160.273 101.832C161.521 100.584 162.145 98.76 162.145 96.36C162.145 92.808 161.137 90.024 159.121 88.008C157.105 85.896 154.129 83.736 150.193 81.528C146.833 79.704 144.289 78.216 142.561 77.064C140.833 75.912 139.297 74.28 137.953 72.168C136.609 70.056 135.937 67.464 135.937 64.392C135.937 58.728 137.953 54.6 141.985 52.008C146.017 49.32 150.961 47.976 156.817 47.976C159.025 47.976 160.993 48.12 162.721 48.408C164.545 48.696 166.561 49.272 168.769 50.136C169.633 50.424 170.065 50.952 170.065 51.72C170.065 54.12 170.017 55.992 169.921 57.336L169.777 64.536C169.777 64.824 169.489 64.968 168.913 64.968C168.337 64.968 168.049 64.824 168.049 64.536C168.049 62.712 167.281 60.744 165.745 58.632C164.209 56.424 162.193 54.552 159.697 53.016C157.297 51.48 154.801 50.712 152.209 50.712C148.273 50.712 146.305 52.584 146.305 56.328ZM248.532 103.272C248.916 103.272 249.108 103.56 249.108 104.136C249.108 104.712 248.916 105 248.532 105C246.036 105 244.02 104.952 242.484 104.856L234.132 104.712L225.492 104.856C224.052 104.952 222.084 105 219.588 105C219.396 105 219.3 104.712 219.3 104.136C219.3 103.56 219.396 103.272 219.588 103.272C222.564 103.272 224.58 102.6 225.636 101.256C226.788 99.816 227.364 97.176 227.364 93.336V72.6C227.364 67.416 226.404 63.576 224.484 61.08C222.564 58.584 219.588 57.336 215.556 57.336C213.252 57.336 210.852 57.816 208.356 58.776C205.956 59.736 203.844 61.032 202.02 62.664V93.336C202.02 97.176 202.548 99.816 203.604 101.256C204.756 102.6 206.82 103.272 209.796 103.272C210.18 103.272 210.372 103.56 210.372 104.136C210.372 104.712 210.18 105 209.796 105C207.3 105 205.284 104.952 203.748 104.856L195.396 104.712L186.756 104.856C185.316 104.952 183.348 105 180.852 105C180.66 105 180.564 104.712 180.564 104.136C180.564 103.56 180.66 103.272 180.852 103.272C183.828 103.272 185.844 102.6 186.9 101.256C188.052 99.816 188.628 97.176 188.628 93.336V20.184C188.628 16.824 188.292 14.424 187.62 12.984C187.044 11.544 185.988 10.824 184.452 10.824C183.108 10.824 181.284 11.352 178.98 12.408H178.836C178.548 12.408 178.26 12.168 177.972 11.688C177.78 11.112 177.78 10.776 177.972 10.68L198.996 0.743995L199.716 0.599997C200.196 0.599997 200.676 0.839996 201.156 1.32C201.732 1.704 202.02 2.088 202.02 2.472V59.496C208.836 51.624 216.132 47.688 223.908 47.688C229.092 47.688 233.172 49.368 236.148 52.728C239.22 55.992 240.756 60.312 240.756 65.688V93.336C240.756 97.176 241.284 99.816 242.34 101.256C243.492 102.6 245.556 103.272 248.532 103.272ZM256.71 105C256.422 105 256.278 104.712 256.278 104.136C256.278 103.56 256.422 103.272 256.71 103.272C259.686 103.272 261.702 102.6 262.758 101.256C263.814 99.816 264.342 97.176 264.342 93.336V67.56C264.342 64.296 264.006 61.944 263.334 60.504C262.662 59.064 261.558 58.344 260.022 58.344C258.774 58.344 256.998 58.872 254.694 59.928H254.55C254.166 59.928 253.878 59.688 253.686 59.208C253.494 58.632 253.542 58.296 253.83 58.2L275.574 48.12L276.006 47.976C276.486 47.976 276.966 48.216 277.446 48.696C277.926 49.176 278.166 49.608 278.166 49.992V53.16C277.974 57 277.878 61.704 277.878 67.272V93.336C277.878 97.176 278.406 99.816 279.462 101.256C280.614 102.6 282.678 103.272 285.654 103.272C285.942 103.272 286.086 103.56 286.086 104.136C286.086 104.712 285.942 105 285.654 105C283.158 105 281.19 104.952 279.75 104.856L271.11 104.712L262.614 104.856C261.174 104.952 259.206 105 256.71 105ZM270.534 33.72C267.75 33.72 265.59 32.952 264.054 31.416C262.518 29.88 261.75 27.72 261.75 24.936C261.75 22.44 262.518 20.472 264.054 19.032C265.686 17.496 267.846 16.728 270.534 16.728C273.222 16.728 275.286 17.448 276.726 18.888C278.166 20.328 278.886 22.344 278.886 24.936C278.886 27.72 278.166 29.88 276.726 31.416C275.286 32.952 273.222 33.72 270.534 33.72ZM323.05 106.872C317.098 106.872 311.866 105.528 307.354 102.84C302.938 100.056 299.53 96.36 297.13 91.752C294.73 87.048 293.53 81.96 293.53 76.488C293.53 70.248 295.114 64.968 298.282 60.648C301.45 56.232 305.482 52.968 310.378 50.856C315.274 48.648 320.314 47.544 325.498 47.544C331.45 47.544 336.634 48.936 341.05 51.72C345.466 54.504 348.826 58.2 351.13 62.808C353.53 67.32 354.73 72.168 354.73 77.352C354.73 83.112 353.29 88.248 350.41 92.76C347.53 97.176 343.642 100.632 338.746 103.128C333.946 105.624 328.714 106.872 323.05 106.872ZM327.37 103.848C331.114 103.848 333.946 102.024 335.866 98.376C337.882 94.632 338.89 89.304 338.89 82.392C338.89 75.672 338.026 69.912 336.298 65.112C334.57 60.312 332.314 56.712 329.53 54.312C326.746 51.816 323.77 50.568 320.602 50.568C312.922 50.568 309.082 57.432 309.082 71.16C309.082 77.592 309.898 83.304 311.53 88.296C313.162 93.192 315.37 97.032 318.154 99.816C320.938 102.504 324.01 103.848 327.37 103.848ZM432.671 103.272C432.959 103.272 433.103 103.56 433.103 104.136C433.103 104.712 432.959 105 432.671 105C430.175 105 428.207 104.952 426.767 104.856L418.127 104.712L409.775 104.856C408.239 104.952 406.223 105 403.727 105C403.439 105 403.295 104.712 403.295 104.136C403.295 103.56 403.439 103.272 403.727 103.272C406.703 103.272 408.719 102.6 409.775 101.256C410.831 99.816 411.359 97.176 411.359 93.336V72.6C411.359 67.416 410.399 63.576 408.479 61.08C406.655 58.584 403.727 57.336 399.695 57.336C397.391 57.336 394.991 57.816 392.495 58.776C390.095 59.736 387.983 61.032 386.159 62.664V93.336C386.159 97.176 386.687 99.816 387.743 101.256C388.895 102.6 390.959 103.272 393.935 103.272C394.223 103.272 394.367 103.56 394.367 104.136C394.367 104.712 394.223 105 393.935 105C391.439 105 389.471 104.952 388.031 104.856L379.391 104.712L370.895 104.856C369.455 104.952 367.487 105 364.991 105C364.703 105 364.559 104.712 364.559 104.136C364.559 103.56 364.703 103.272 364.991 103.272C367.967 103.272 369.983 102.6 371.039 101.256C372.095 99.816 372.623 97.176 372.623 93.336V66.264C372.623 63.288 372.239 61.128 371.471 59.784C370.799 58.344 369.695 57.624 368.159 57.624C366.527 57.624 364.223 58.296 361.247 59.64H360.959C360.671 59.64 360.431 59.4 360.239 58.92C360.143 58.44 360.191 58.152 360.383 58.056L380.399 48.264C380.975 48.072 381.311 47.976 381.407 47.976C382.463 47.976 383.471 49.032 384.431 51.144C385.391 53.16 385.967 55.944 386.159 59.496C392.783 51.624 400.079 47.688 408.047 47.688C413.231 47.688 417.311 49.368 420.287 52.728C423.359 55.992 424.895 60.312 424.895 65.688V93.336C424.895 97.176 425.423 99.816 426.479 101.256C427.631 102.6 429.695 103.272 432.671 103.272ZM574.33 103.272C574.618 103.272 574.762 103.56 574.762 104.136C574.762 104.712 574.618 105 574.33 105C570.97 105 568.282 104.952 566.266 104.856L555.178 104.712L542.218 104.856C540.49 104.952 538.138 105 535.162 105C534.874 105 534.73 104.712 534.73 104.136C534.73 103.56 534.874 103.272 535.162 103.272C538.714 103.272 541.306 103.032 542.938 102.552C544.57 102.072 545.674 101.16 546.25 99.816C546.826 98.472 547.114 96.312 547.114 93.336V60.216H500.602V93.336C500.602 96.216 500.89 98.376 501.466 99.816C502.042 101.16 503.146 102.072 504.778 102.552C506.41 103.032 509.002 103.272 512.554 103.272C512.746 103.272 512.842 103.56 512.842 104.136C512.842 104.712 512.746 105 512.554 105C509.194 105 506.506 104.952 504.49 104.856L491.962 104.712L481.162 104.856C479.242 104.952 476.602 105 473.242 105C473.05 105 472.954 104.712 472.954 104.136C472.954 103.56 473.05 103.272 473.242 103.272C476.602 103.272 479.05 103.032 480.586 102.552C482.122 102.072 483.178 101.16 483.754 99.816C484.33 98.376 484.618 96.216 484.618 93.336V26.664C484.618 23.784 484.33 21.672 483.754 20.328C483.178 18.984 482.122 18.072 480.586 17.592C479.146 17.016 476.794 16.728 473.53 16.728C473.242 16.728 473.098 16.44 473.098 15.864C473.098 15.288 473.242 15 473.53 15L481.306 15.144C485.722 15.336 489.274 15.432 491.962 15.432C495.61 15.432 499.834 15.336 504.634 15.144L512.554 15C512.746 15 512.842 15.288 512.842 15.864C512.842 16.44 512.746 16.728 512.554 16.728C509.098 16.728 506.554 17.016 504.922 17.592C503.29 18.168 502.138 19.176 501.466 20.616C500.89 21.96 500.602 24.072 500.602 26.952V56.184H547.114V26.952C547.114 24.072 546.826 21.96 546.25 20.616C545.674 19.176 544.57 18.168 542.938 17.592C541.306 17.016 538.714 16.728 535.162 16.728C534.874 16.728 534.73 16.44 534.73 15.864C534.73 15.288 534.874 15 535.162 15L542.218 15.144C547.018 15.336 551.338 15.432 555.178 15.432C557.77 15.432 561.466 15.336 566.266 15.144L574.33 15C574.618 15 574.762 15.288 574.762 15.864C574.762 16.44 574.618 16.728 574.33 16.728C571.066 16.728 568.618 17.016 566.986 17.592C565.45 18.072 564.394 18.984 563.818 20.328C563.338 21.672 563.098 23.784 563.098 26.664V93.336C563.098 96.216 563.338 98.376 563.818 99.816C564.394 101.16 565.45 102.072 566.986 102.552C568.522 103.032 570.97 103.272 574.33 103.272ZM650.747 95.64C651.035 95.64 651.275 95.88 651.467 96.36C651.755 96.84 651.755 97.128 651.467 97.224L631.595 106.872C631.403 106.968 631.163 107.016 630.875 107.016C629.915 107.016 629.051 106.008 628.283 103.992C627.611 101.88 627.227 99.048 627.131 95.496C620.795 102.984 613.931 106.728 606.539 106.728C601.259 106.728 597.083 105.096 594.011 101.832C591.035 98.472 589.547 94.104 589.547 88.728V67.56C589.547 61.32 588.059 58.2 585.083 58.2C584.027 58.2 582.827 58.536 581.483 59.208H581.339C580.955 59.208 580.667 58.968 580.475 58.488C580.283 57.912 580.331 57.576 580.619 57.48L599.915 48.264L600.635 48.12C601.115 48.12 601.595 48.36 602.075 48.84C602.651 49.224 602.939 49.608 602.939 49.992V81.816C602.939 92.184 606.923 97.368 614.891 97.368C617.003 97.368 619.115 96.936 621.227 96.072C623.435 95.112 625.403 93.816 627.131 92.184V67.56C627.131 61.32 625.643 58.2 622.667 58.2C621.611 58.2 620.363 58.536 618.923 59.208H618.779C618.491 59.208 618.251 58.968 618.059 58.488C617.867 57.912 617.915 57.576 618.203 57.48L637.499 48.264C637.691 48.168 637.931 48.12 638.219 48.12C638.699 48.12 639.179 48.36 639.659 48.84C640.235 49.224 640.523 49.608 640.523 49.992V88.296C640.523 91.56 640.811 93.864 641.387 95.208C642.059 96.552 643.115 97.224 644.555 97.224C645.899 97.224 647.867 96.696 650.459 95.64H650.747ZM697.386 47.544C701.706 47.544 705.69 48.552 709.338 50.568C712.986 52.584 715.866 55.608 717.978 59.64C720.186 63.672 721.29 68.568 721.29 74.328C721.29 81.24 719.802 87.144 716.826 92.04C713.946 96.936 710.106 100.632 705.306 103.128C700.602 105.624 695.562 106.872 690.186 106.872C686.538 106.872 682.938 106.296 679.386 105.144C675.93 103.992 672.762 102.312 669.882 100.104L656.778 106.008H656.49C656.106 106.008 655.866 105.816 655.77 105.432C655.674 105.048 655.818 104.808 656.202 104.712C658.506 103.368 660.234 101.544 661.386 99.24C662.634 96.84 663.258 93.816 663.258 90.168V20.184C663.258 16.824 662.922 14.424 662.25 12.984C661.674 11.544 660.57 10.824 658.938 10.824C657.69 10.824 655.914 11.352 653.61 12.408H653.466C653.082 12.408 652.794 12.168 652.602 11.688C652.41 11.112 652.41 10.776 652.602 10.68L673.626 0.743995L674.346 0.599997C674.826 0.599997 675.306 0.839996 675.786 1.32C676.362 1.704 676.65 2.088 676.65 2.472V57.192C679.818 54.216 683.034 51.864 686.298 50.136C689.562 48.408 693.258 47.544 697.386 47.544ZM693.642 103.992C697.77 103.992 700.938 101.88 703.146 97.656C705.354 93.432 706.458 87.528 706.458 79.944C706.458 71.592 705.066 65.4 702.282 61.368C699.498 57.24 695.61 55.176 690.618 55.176C686.106 55.176 681.45 56.808 676.65 60.072V81.24C676.65 86.52 677.562 90.888 679.386 94.344C681.21 97.704 683.418 100.152 686.01 101.688C688.602 103.224 691.146 103.992 693.642 103.992Z" fill="#FCFCFC"/>
</svg>
