<?xml version="1.0" encoding="utf-8"?>
<!-- Generator: Adobe Illustrator 23.0.2, SVG Export Plug-In . SVG Version: 6.00 Build 0)  -->
<svg version="1.1" id="Layer_1" xmlns="http://www.w3.org/2000/svg" xmlns:xlink="http://www.w3.org/1999/xlink" x="0px" y="0px"
	 viewBox="0 0 19 19" style="enable-background:new 0 0 19 19;" xml:space="preserve">
<style type="text/css">
	.st0{fill-rule:evenodd;clip-rule:evenodd;fill:#FFFFFF;}
</style>
<path class="st0" d="M11.8,4.5c-0.4,0-0.7,0.1-1,0.2c-0.3,0.2-0.6,0.4-0.8,0.7C9.6,5.7,9.5,6,9.4,6.3C9.3,6.7,9.3,7,9.4,7.4
	c0,0.1,0,0.2,0,0.4C9.4,8,9.2,8,9.2,8.1C9.1,8.2,9,8.3,8.9,8.3s-0.2,0.1-0.4,0c-1.7-0.2-3.3-0.9-4.6-2c0,0.5,0.2,1,0.5,1.5L5,8.6
	L4.1,9L3.9,9.1C4,9.2,4.2,9.4,4.3,9.5C4.5,9.7,4.8,9.9,5,10l0,0l0,0l1.2,0.7L5,11.5c-0.1,0-0.1,0.1-0.2,0.1c0.3,0.2,0.6,0.4,0.9,0.6
	l1.1,0.5l-0.9,0.8c-0.5,0.4-1,0.8-1.7,0.9c1,0.5,2.1,0.8,3.3,0.8c3.8,0,6.9-3,6.9-6.8V8l0.3-0.2c0.5-0.4,0.9-0.9,1.2-1.4h-1.7
	L14,5.9c-0.2-0.4-0.5-0.8-0.9-1S12.2,4.5,11.8,4.5L11.8,4.5z M2.8,10.3c-0.1,0.1-0.1,0.2-0.2,0.3c0,0.1,0,0.2,0,0.3
	c0.1,0.6,0.5,1.2,0.9,1.6c0.1,0.1,0.2,0.2,0.4,0.3H3.8c-0.4,0.1-0.9,0.1-1.8,0c-0.2,0-0.3,0-0.5,0.1c-0.1,0.1-0.3,0.2-0.3,0.3
	c-0.1,0.1-0.1,0.3-0.1,0.5s0.1,0.3,0.2,0.4C2.1,14.9,3,15.6,4.1,16c1,0.4,2.2,0.7,3.3,0.7c4.5,0,8.2-3.5,8.4-7.9
	c1-0.9,1.5-2,1.8-3.1c0-0.1,0-0.2,0-0.4c0-0.1-0.1-0.2-0.1-0.3c-0.1-0.1-0.2-0.2-0.3-0.2c-0.1-0.1-0.2-0.1-0.3-0.1H15
	c-0.3-0.7-1-1.2-1.8-1.5S11.6,2.8,10.7,3c-0.7,0.2-1.5,0.7-2,1.3C8.1,5,7.8,5.8,7.7,6.6C6.3,6.2,5,5.4,4,4.2C3.9,4.1,3.8,4.1,3.7,4
	C3.6,4,3.4,3.9,3.3,4C3.2,4,3,4,2.9,4.1C2.8,4.2,2.7,4.3,2.7,4.4c-0.5,1-0.6,2.3,0,3.5L2.5,8C2.3,8.1,2.1,8.2,2.1,8.4
	C2,8.5,2,8.7,2,8.9C2.2,9.4,2.5,9.9,2.8,10.3L2.8,10.3z"/>
</svg>
